<?xml version="1.0" encoding="UTF-8"?>
<svg width="85px" height="79px" viewBox="0 0 85 79" version="1.1" xmlns="http://www.w3.org/2000/svg" xmlns:xlink="http://www.w3.org/1999/xlink">
    <!-- Generator: sketchtool 57.1 (101010) - https://sketch.com -->
    <title>3608AFA3-FA4E-43D0-9F05-78E6A8C93842</title>
    <desc>Created with sketchtool.</desc>
    <g id="ui" stroke="none" stroke-width="1" fill="none" fill-rule="evenodd">
        <g id="add-new-offer-" transform="translate(-853.000000, -983.000000)" fill="#C6C6C6" fill-rule="nonzero">
            <g id="upload-logo" transform="translate(681.000000, 924.000000)">
                <g id="upload" transform="translate(172.000000, 59.000000)">
                    <path d="M2.42999995,38.0069992 C3.77999992,38.0069992 4.8599999,39.0869992 4.8599999,40.4369992 L4.8599999,40.4369992 L4.8599999,62.9009988 C4.8599999,68.8949986 9.73799981,73.7909985 15.7499997,73.7909985 L15.7499997,73.7909985 L69.0659986,73.7909985 C75.0599985,73.7909985 79.9559984,68.9129986 79.9559984,62.9009988 L79.9559984,62.9009988 L79.9559984,40.7969992 C79.9559984,39.4469992 81.0359984,38.3669992 82.3859984,38.3669992 C83.7359983,38.3669992 84.8159983,39.4649992 84.8159983,40.7969992 L84.8159983,40.7969992 L84.8159983,62.9009988 C84.8159983,71.5769986 77.7599985,78.6509984 69.0659986,78.6509984 L69.0659986,78.6509984 L15.7499997,78.6509984 C7.07399986,78.6509984 2.13162821e-14,71.5949986 2.13162821e-14,62.9009988 L2.13162821e-14,62.9009988 L2.13162821e-14,40.4369992 C2.13162821e-14,39.0869992 1.07999998,38.0069992 2.42999995,38.0069992 Z M42.4079992,0.0449999991 C43.0379991,0.0449999991 43.6679991,0.314999994 44.1179991,0.764999985 L44.1179991,0.764999985 L59.5619988,16.2089997 C60.5159988,17.1629997 60.5159988,18.6929996 59.5619988,19.6469996 C59.0939988,20.1329996 58.4819988,20.3669996 57.8519989,20.3669996 C57.2399989,20.3669996 56.6099989,20.1149996 56.1419989,19.6469996 L56.1419989,19.6469996 L44.8379991,8.34299983 L44.8379991,57.6449989 C44.8379991,58.9949988 43.7579991,60.0749988 42.4079992,60.0749988 C41.0579992,60.0749988 39.9779992,58.9949988 39.9779992,57.6449989 L39.9779992,57.6449989 L39.9779992,8.34299983 L28.6739994,19.6469996 C27.7379994,20.5829996 26.1899995,20.5829996 25.2539995,19.6469996 C24.2999995,18.6929996 24.2999995,17.1629997 25.2539995,16.2089997 L25.2539995,16.2089997 L40.6979992,0.764999985 C41.1479992,0.296999994 41.7599992,0.0449999991 42.4079992,0.0449999991 Z" id="Combined-Shape"></path>
                </g>
            </g>
        </g>
    </g>
</svg>