<?xml version="1.0" encoding="UTF-8"?>
<svg width="22px" height="24px" viewBox="0 0 22 24" version="1.1" xmlns="http://www.w3.org/2000/svg" xmlns:xlink="http://www.w3.org/1999/xlink">
    <!-- Generator: sketchtool 56 (101010) - https://sketch.com -->
    <title>3E8A7C21-90F7-4528-817A-0C33E2590F26</title>
    <desc>Created with sketchtool.</desc>
    <g id="ui" stroke="none" stroke-width="1" fill="none" fill-rule="evenodd">
        <g id="Offers-and-events-main-page" transform="translate(-1391.000000, -256.000000)" fill="#FFFFFF" fill-rule="nonzero" stroke="#FFFFFF" stroke-width="0.605000026">
            <g id="Sidebar" transform="translate(1227.000000, 0.000000)">
                <g id="events" transform="translate(69.000000, 248.000000)">
                    <path d="M115.642857,10.4634146 C115.840357,10.4634146 116,10.6269512 116,10.8292683 L116,14.8536585 L116,30.5853659 C116,30.7876829 115.840357,30.9512195 115.642857,30.9512195 L96.3571429,30.9512195 C96.1596429,30.9512195 96,30.7876829 96,30.5853659 L96,14.8536585 L96,10.8292683 C96,10.6269512 96.1596429,10.4634146 96.3571429,10.4634146 L98.8571429,10.4634146 L98.8571429,9.36585366 C98.8571429,9.16353659 99.0167857,9 99.2142857,9 L101.714286,9 C101.911786,9 102.071429,9.16353659 102.071429,9.36585366 L102.071429,10.4634146 L109.928571,10.4634146 L109.928571,9.36585366 C109.928571,9.16353659 110.088214,9 110.285714,9 L112.785714,9 C112.983214,9 113.142857,9.16353659 113.142857,9.36585366 L113.142857,10.4634146 L115.642857,10.4634146 Z M110.642857,9.73170732 L110.642857,10.8292683 L110.642857,11.9268293 L112.428571,11.9268293 L112.428571,10.8292683 L112.428571,9.73170732 L110.642857,9.73170732 Z M99.5714286,9.73170732 L99.5714286,10.8292683 L99.5714286,11.9268293 L101.357143,11.9268293 L101.357143,10.8292683 L101.357143,9.73170732 L99.5714286,9.73170732 Z M96.7142857,11.195122 L96.7142857,14.4878049 L115.285714,14.4878049 L115.285714,11.195122 L113.142857,11.195122 L113.142857,12.2926829 C113.142857,12.495 112.983214,12.6585366 112.785714,12.6585366 L110.285714,12.6585366 C110.088214,12.6585366 109.928571,12.495 109.928571,12.2926829 L109.928571,11.195122 L102.071429,11.195122 L102.071429,12.2926829 C102.071429,12.495 101.911786,12.6585366 101.714286,12.6585366 L99.2142857,12.6585366 C99.0167857,12.6585366 98.8571429,12.495 98.8571429,12.2926829 L98.8571429,11.195122 L96.7142857,11.195122 Z M96.7142857,30.2195122 L115.285714,30.2195122 L115.285714,15.2195122 L96.7142857,15.2195122 L96.7142857,30.2195122 Z M108.857143,17.4146341 L109.571429,17.4146341 L112.785714,17.4146341 L112.785714,20.7073171 L112.785714,21.4390244 L112.785714,24 L112.785714,24.7317073 L112.785714,28.0243902 L109.571429,28.0243902 L108.857143,28.0243902 L106.357143,28.0243902 L105.642857,28.0243902 L103.142857,28.0243902 L102.428571,28.0243902 L99.2142857,28.0243902 L99.2142857,24.7317073 L99.2142857,24 L99.2142857,21.4390244 L99.2142857,20.7073171 L99.2142857,17.4146341 L102.428571,17.4146341 L103.142857,17.4146341 L105.642857,17.4146341 L106.357143,17.4146341 L108.857143,17.4146341 Z M106.357143,18.1463415 L106.357143,20.7073171 L108.857143,20.7073171 L108.857143,18.1463415 L106.357143,18.1463415 Z M108.857143,24 L108.857143,21.4390244 L106.357143,21.4390244 L106.357143,24 L108.857143,24 Z M103.142857,21.4390244 L103.142857,24 L105.642857,24 L105.642857,21.4390244 L103.142857,21.4390244 Z M103.142857,18.1463415 L103.142857,20.7073171 L105.642857,20.7073171 L105.642857,18.1463415 L103.142857,18.1463415 Z M99.9285714,18.1463415 L99.9285714,20.7073171 L102.428571,20.7073171 L102.428571,18.1463415 L99.9285714,18.1463415 Z M99.9285714,21.4390244 L99.9285714,24 L102.428571,24 L102.428571,21.4390244 L99.9285714,21.4390244 Z M102.428571,27.2926829 L102.428571,24.7317073 L99.9285714,24.7317073 L99.9285714,27.2926829 L102.428571,27.2926829 Z M105.642857,27.2926829 L105.642857,24.7317073 L103.142857,24.7317073 L103.142857,27.2926829 L105.642857,27.2926829 Z M108.857143,27.2926829 L108.857143,24.7317073 L106.357143,24.7317073 L106.357143,27.2926829 L108.857143,27.2926829 Z M112.071429,27.2926829 L112.071429,24.7317073 L109.571429,24.7317073 L109.571429,27.2926829 L112.071429,27.2926829 Z M112.071429,24 L112.071429,21.4390244 L109.571429,21.4390244 L109.571429,24 L112.071429,24 Z M112.071429,18.1463415 L109.571429,18.1463415 L109.571429,20.7073171 L112.071429,20.7073171 L112.071429,18.1463415 Z" id="Combined-Shape"></path>
                </g>
            </g>
        </g>
    </g>
</svg>