<?xml version="1.0" encoding="UTF-8"?>
<svg width="25px" height="29px" viewBox="0 0 25 29" version="1.1" xmlns="http://www.w3.org/2000/svg" xmlns:xlink="http://www.w3.org/1999/xlink">
    <title>3FFDE328-0D87-4D94-A006-4F22DC95BB7E</title>
    <desc>Created with sketchtool.</desc>
    <g id="ui" stroke="none" stroke-width="1" fill="none" fill-rule="evenodd">
        <g id="Offers-and-events-main-page" transform="translate(-1388.000000, -314.000000)" fill="#fff" fill-rule="nonzero" stroke="#fff" stroke-width="0.5">
            <g id="Sidebar" transform="translate(1227.000000, 0.000000)">
                <g id="selected-page" transform="translate(0.000000, 310.000000)">
                    <g id="Group-3" transform="translate(79.000000, 1.000000)">
                        <path d="M97.4897993,17.2067841 C96.9542868,17.0109537 96.5697714,16.4831653 96.5697714,15.8643408 C96.5697714,15.0792057 97.1887385,14.4406143 97.9497459,14.4406143 C98.7107533,14.4406143 99.3297204,15.0792057 99.3297204,15.8643408 C99.3297204,16.4831653 98.945205,17.0109537 98.4096925,17.2067841 L98.4096925,18.9491278 C98.4096925,21.1734223 96.6557503,22.9829731 94.4998096,22.9829731 C92.3438689,22.9829731 90.5899267,21.1734223 90.5899267,18.9491278 L90.5899267,17.2067841 C90.0544142,17.0109537 89.6698988,16.4831653 89.6698988,15.8643408 C89.6698988,15.0792057 90.2888659,14.4406143 91.0498733,14.4406143 C91.8108807,14.4406143 92.4298478,15.0792057 92.4298478,15.8643408 C92.4298478,16.4831653 92.0453324,17.0109537 91.5098199,17.2067841 L91.5098199,18.9489888 C91.5098199,20.6499526 92.8511174,22.0337758 94.4998096,22.0337758 C96.1485018,22.0337758 97.4897993,20.6498135 97.4897993,18.9489888 L97.4897993,17.2067841 Z M97.5352465,16.0701291 C97.6182103,15.9458559 97.7570846,15.8643408 97.9143032,15.8643408 L97.9497459,15.8643408 C98.1198434,15.8643408 98.268468,15.9598202 98.3480448,16.1016124 C98.3872405,16.0318051 98.4096925,15.9507977 98.4096925,15.8644798 C98.4096925,15.6028145 98.2033701,15.3899507 97.9497459,15.3899507 C97.6961217,15.3899507 97.4897993,15.6028145 97.4897993,15.8644798 C97.4897993,15.9381126 97.5061265,16.0078809 97.5352465,16.0701291 Z M90.6515843,16.1016301 C90.7311636,15.9598889 90.8797829,15.8644798 91.0498733,15.8644798 C91.2199637,15.8644798 91.368583,15.9598889 91.4481623,16.1016301 C91.4873641,16.0318188 91.5098199,15.950805 91.5098199,15.8644798 C91.5098199,15.6028145 91.3034975,15.3899507 91.0498733,15.3899507 C90.7962491,15.3899507 90.5899267,15.6028145 90.5899267,15.8644798 C90.5899267,15.950805 90.6123826,16.0318188 90.6515843,16.1016301 Z M105.007282,12.7609991 C105.049187,12.8283251 105.075106,12.9074102 105.07939,12.9926957 L105.999418,30.5011396 C106.005751,30.6311381 105.960202,30.7580777 105.873549,30.852344 C105.786222,30.9466103 105.665609,31 105.539606,31 L83.4600134,31 C83.3338751,31 83.2133969,30.9464712 83.1264747,30.852344 C83.0396872,30.7580777 82.9941373,30.630999 83.0006059,30.5011396 L83.9202368,13.0002512 C83.9228943,12.9212645 83.9446435,12.842844 83.9854549,12.772602 L85.3654294,10.3996782 C85.4484435,10.2566104 85.5981654,10.1692959 85.7598811,10.1692959 L86.0900123,10.1692959 L85.7167569,6.91085323 C85.6869743,6.6504392 85.8672874,6.41463451 86.1194292,6.38376857 L91.2877571,5.75350735 C91.3014186,5.71992463 91.3190733,5.68744116 91.3408269,5.65675044 C92.0751513,4.61912636 93.2562154,4 94.4998096,4 C96.3452538,4 97.9450946,5.35483417 98.3243971,7.19292333 L102.435067,8.18483815 C102.553928,8.21347952 102.656753,8.28953209 102.72117,8.39672869 C102.785586,8.50350817 102.80607,8.63253338 102.77804,8.75502391 L102.457389,10.1692959 L103.239603,10.1692959 C103.401319,10.1692959 103.551041,10.2566104 103.634055,10.3996782 L105.007282,12.7609991 Z M104.182541,13.4915561 L84.8169435,13.4915561 L83.9440826,30.0508027 L105.055402,30.0508027 L104.182541,13.4915561 Z M95.1633311,9.00329413 L95.6117403,7.02569679 C95.6395015,6.90306723 95.7133517,6.79698292 95.8168497,6.73052382 C95.9206174,6.66434278 96.0456776,6.64293127 96.1644039,6.67171168 L97.297482,6.9451262 C96.8658715,5.77170275 95.7574952,4.94919732 94.4996748,4.94919732 C93.8392818,4.94919732 93.2019574,5.1776776 92.6858908,5.58300938 L93.8130567,5.44555508 C93.9347478,5.43081728 94.0558998,5.46641044 94.1518512,5.54427048 C94.2478025,5.62213052 94.3096588,5.73627891 94.3239437,5.86127208 L94.6972565,9.11893564 L95.1633311,9.00329413 Z M96.1644209,8.7549057 L96.9131479,8.56913306 C97.0324132,8.53993555 97.1570691,8.56037381 97.2609715,8.62558159 C97.3648739,8.69134552 97.4393979,8.79715175 97.4679677,8.91936421 L98.312351,12.5420807 L100.974792,12.5420807 L101.777558,9.00097822 L96.4027999,7.70391336 L96.1644209,8.7549057 Z M97.3658657,12.5420807 L96.6808162,9.60314221 L90.1650186,11.2195723 L90.4733383,12.5420807 L97.3658657,12.5420807 Z M89.5272118,12.5420807 L89.1631894,10.9801526 C89.1038936,10.7253 89.2559064,10.4689181 89.5029273,10.4077423 L93.7964592,9.34243967 L93.4644244,6.44369299 L86.6843563,7.27039978 L87.2882641,12.5420807 L89.5272118,12.5420807 Z M86.1987271,11.1183542 L86.0202435,11.1183542 L85.1922588,12.5420807 L86.3618153,12.5420807 L86.1987271,11.1183542 Z M101.919419,12.5420807 L103.807226,12.5420807 L102.979241,11.1183542 L102.242214,11.1183542 L101.919419,12.5420807 Z" id="Combined-Shape"></path>
                    </g>
                </g>
            </g>
        </g>
    </g>
</svg>