<?xml version="1.0" encoding="UTF-8"?>
<svg width="142px" height="142px" viewBox="0 0 142 142" version="1.1" xmlns="http://www.w3.org/2000/svg" xmlns:xlink="http://www.w3.org/1999/xlink">
    <!-- Generator: sketchtool 57.1 (101010) - https://sketch.com -->
    <title>D8FE84C7-B9E8-4E54-900D-58B73F5F8401</title>
    <desc>Created with sketchtool.</desc>
    <g id="ui" stroke="none" stroke-width="1" fill="none" fill-rule="evenodd">
        <g id="login-fill-info" transform="translate(-80.000000, -812.000000)" fill-rule="nonzero">
            <g id="Elm_Brandmark_Artwork_2016_RGB" transform="translate(80.000000, 812.000000)">
                <polyline id="Path" fill="#1E1656" points="60.335 78.375 45.25 69.67 45.25 52.25 60.335 60.96 60.335 78.375"></polyline>
                <polyline id="Path" fill="#1E1656" points="60.335 26.125 45.25 34.835 45.25 52.25 60.335 43.54 60.335 26.125"></polyline>
                <polyline id="Path" fill="#1E1656" points="75.415 0 60.335 8.71 60.335 26.125 75.415 17.415 75.415 0"></polyline>
                <polyline id="Path" fill="#1E1656" points="30.165 26.125 15.085 34.835 15.085 52.25 30.165 43.54 30.165 26.125"></polyline>
                <polyline id="Path" fill="#722EA5" points="45.25 52.25 30.165 43.54 30.165 26.125 45.25 34.835 45.25 52.25"></polyline>
                <polyline id="Path" fill="#2A6EBB" points="105.585 52.25 90.5 43.54 90.5 26.125 105.585 34.835 105.585 52.25"></polyline>
                <polygon id="Path" fill="#952D98" points="0 78.375 0 78.375 15.085 87.085 30.165 78.375 15.085 69.67"></polygon>
                <polygon id="Path" fill="#952D98" points="30.165 78.375 30.165 78.375 45.25 87.085 60.335 78.375 45.25 69.67"></polygon>
                <polygon id="Path" fill="#44C8F5" points="45.25 52.25 45.25 52.25 60.335 60.96 75.415 52.25 60.335 43.54"></polygon>
                <polygon id="Path" fill="#44C8F5" points="75.415 52.25 75.415 52.25 90.5 60.96 105.585 52.25 90.5 43.54"></polygon>
                <path d="M60.335,90.695 C60.335,93.615 60.335,108.845 60.335,112.95 L45.145,112.95 C45.0128115,112.947899 44.885171,112.998236 44.79,113.09 L40.29,120.715 C40.155,120.965 40.11,121.07 40.185,121.255 C40.2609955,121.440051 40.4399751,121.561993 40.64,121.565 L92.575,121.565 C94.8313638,121.510105 96.9446543,120.447957 98.335,118.67 C99.7178883,120.449009 101.827347,121.512 104.08,121.565 L141.23,121.565 C141.506142,121.565 141.73,121.341142 141.73,121.065 L141.73,113.435 C141.725538,113.306605 141.671824,113.184854 141.58,113.095 C141.48687,113.002628 141.36117,112.950552 141.23,112.95 L121.5,112.95 L121.5,100.875 C121.499584,99.8081209 122.348537,98.9347859 123.415,98.905 L136.68,98.905 C136.815844,98.9057097 136.946675,98.8537357 137.045,98.76 L141.585,91.07 C141.72,90.82 141.765,90.71 141.69,90.525 C141.614867,90.3363249 141.433076,90.2118375 141.23,90.21 L121.16,90.21 C116.66,90.21 112.82,93.8 112.82,98.04 L112.82,112.95 L105.32,112.95 L105.32,75.05 C105.316993,74.8499751 105.195051,74.6709955 105.01,74.595 C104.825,74.52 104.72,74.565 104.47,74.7 L96.835,79.2 C96.7458734,79.2968454 96.6959692,79.4233883 96.695,79.555 L96.695,112.94 L89.195,112.94 L89.195,97.94 C89.195,93.745 85.41,90.19 80.925,90.19 L60.825,90.19 C60.5508141,90.1954705 60.332203,90.4207738 60.335,90.695 Z M80.6300291,112.95 L70.915,112.95 C69.8572726,112.950348 68.9921212,112.10738 68.965,111.05 L68.965,98.905 L78.735,98.905 C79.7927175,98.9295257 80.6357379,99.7970137 80.6300291,100.855 L80.6300291,112.95 Z" id="Shape" fill="#808285"></path>
                <path d="M107.97,127.5 C107.967095,127.443464 107.988285,127.388345 108.028315,127.348315 C108.068345,127.308285 108.123464,127.287095 108.18,127.29 L117.445,127.29 C117.501536,127.287095 117.556655,127.308285 117.596685,127.348315 C117.636715,127.388345 117.657905,127.443464 117.655,127.5 L117.655,129.775 C117.657905,129.831536 117.636715,129.886655 117.596685,129.926685 C117.556655,129.966715 117.501536,129.987905 117.445,129.985 L111.22,129.985 C111.184205,129.979927 111.148108,129.991981 111.122545,130.017545 C111.096981,130.043108 111.084927,130.079205 111.09,130.115 L111.09,133 C111.09,133.085 111.135,133.125 111.22,133.125 L116.405,133.125 C116.462462,133.121955 116.518452,133.143807 116.55866,133.184972 C116.598867,133.226137 116.619396,133.282625 116.615,133.34 L116.615,135.59 C116.619396,135.647375 116.598867,135.703863 116.55866,135.745028 C116.518452,135.786193 116.462462,135.808045 116.405,135.805 L111.22,135.805 C111.135,135.805 111.09,135.845 111.09,135.93 L111.09,138.93 C111.084927,138.965795 111.096981,139.001892 111.122545,139.027455 C111.148108,139.053019 111.184205,139.065073 111.22,139.06 L117.445,139.06 C117.501536,139.057095 117.556655,139.078285 117.596685,139.118315 C117.636715,139.158345 117.657905,139.213464 117.655,139.27 L117.655,141.5 C117.657905,141.556536 117.636715,141.611655 117.596685,141.651685 C117.556655,141.691715 117.501536,141.712905 117.445,141.71 L108.18,141.71 C108.123464,141.712905 108.068345,141.691715 108.028315,141.651685 C107.988285,141.611655 107.967095,141.556536 107.97,141.5 L107.97,127.5 Z" id="Path" fill="#808285"></path>
                <path d="M123.075,141.855 C120.805,141.855 119.89,140.855 119.89,138.58 L119.89,127.5 C119.887095,127.443464 119.908285,127.388345 119.948315,127.348315 C119.988345,127.308285 120.043464,127.287095 120.1,127.29 L122.65,127.29 C122.707375,127.285604 122.763863,127.306133 122.805028,127.34634 C122.846193,127.386548 122.868045,127.442538 122.865,127.5 L122.865,138.35 C122.865,139.05 123.14,139.325 123.755,139.325 L124.2,139.325 C124.258301,139.320436 124.31568,139.341617 124.357031,139.382969 C124.398383,139.42432 124.419564,139.481699 124.415,139.54 L124.415,141.64 C124.419564,141.698301 124.398383,141.75568 124.357031,141.797031 C124.31568,141.838383 124.258301,141.859564 124.2,141.855 L123.075,141.855 Z" id="Path" fill="#808285"></path>
                <path d="M138.97,141.725 C138.913464,141.727905 138.858345,141.706715 138.818315,141.666685 C138.778285,141.626655 138.757095,141.571536 138.76,141.515 L138.76,135.605 C138.76,134.48 138.205,133.74 137.145,133.74 C136.085,133.74 135.55,134.48 135.55,135.605 L135.55,141.5 C135.553045,141.557462 135.531193,141.613452 135.490028,141.65366 C135.448863,141.693867 135.392375,141.714396 135.335,141.71 L132.785,141.71 C132.728464,141.712905 132.673345,141.691715 132.633315,141.651685 C132.593285,141.611655 132.572095,141.556536 132.575,141.5 L132.575,135.605 C132.575,134.48 132.045,133.74 130.98,133.74 C129.915,133.74 129.365,134.48 129.365,135.605 L129.365,141.5 C129.367905,141.556536 129.346715,141.611655 129.306685,141.651685 C129.266655,141.691715 129.211536,141.712905 129.155,141.71 L126.605,141.71 C126.547625,141.714396 126.491137,141.693867 126.449972,141.65366 C126.408807,141.613452 126.386955,141.557462 126.39,141.5 L126.39,131.655 C126.386955,131.597538 126.408807,131.541548 126.449972,131.50134 C126.491137,131.461133 126.547625,131.440604 126.605,131.445 L129.155,131.445 C129.211536,131.442095 129.266655,131.463285 129.306685,131.503315 C129.346715,131.543345 129.367905,131.598464 129.365,131.655 L129.365,132.38 L129.365,132.38 C130.066479,131.613723 131.064789,131.187839 132.103383,131.211792 C133.141978,131.235745 134.119593,131.707199 134.785,132.505 L134.785,132.505 C135.624158,131.627175 136.801848,131.155005 138.015,131.21 C140.44,131.21 141.69,132.76 141.69,135.035 L141.69,141.535 C141.692905,141.591536 141.671715,141.646655 141.631685,141.686685 C141.591655,141.726715 141.536536,141.747905 141.48,141.745 L138.97,141.725 Z" id="Path" fill="#808285"></path>
            </g>
        </g>
    </g>
</svg>