<?xml version="1.0" encoding="UTF-8"?>
<svg width="93px" height="94px" viewBox="0 0 93 94" version="1.1" xmlns="http://www.w3.org/2000/svg" xmlns:xlink="http://www.w3.org/1999/xlink">
    <!-- Generator: sketchtool 56 (101010) - https://sketch.com -->
    <title>EC9D5BBB-A10B-4BF3-A44D-998C43F65BD1</title>
    <desc>Created with sketchtool.</desc>
    <g id="ui" stroke="none" stroke-width="1" fill="none" fill-rule="evenodd">
        <g id="Offers-and-events-main-page" transform="translate(-1287.000000, -85.000000)" fill="#FFFFFF" fill-rule="nonzero">
            <g id="Sidebar" transform="translate(1227.000000, 0.000000)">
                <g id="logo" transform="translate(60.000000, 85.000000)">
                    <path d="M39.550801,51.7455513 L30,57 L20,51.4984209 L30,46 L30,35 L40,40.6677512 L40,52 L39.550801,51.7455513 Z M30,34 L20,28.3322488 L10,34 L10,22.6677512 L20,17 L30,22.6677512 L40,17 L40,28.3322488 L30,34 Z M50,0 L50,11.3322488 L40,17 L40,5.6677512 L50,0 Z M70,34 L60,28.3322488 L60,17 L70,22.6677512 L70,34 Z M0,51.4984209 L10.0016576,46 L20,51.4984209 L10.0016576,57 L0,51.4984209 Z M30,34.5 L40.0016576,29 L50,34.5 L40.0016576,40 L30,34.5 Z M50,34.5 L60,29 L70,34.5 L60,40 L50,34.5 Z M39.3141924,59.6415914 C39.3123476,59.4607424 39.4565372,59.3121575 39.6373824,59.3085498 L52.8947659,59.3085498 C55.8529433,59.3085498 58.3494207,61.6530312 58.3494207,64.4195853 L58.3494207,74.3119121 L63.2962056,74.3119121 L63.2962056,52.2948901 C63.2968449,52.2080937 63.3297603,52.1246401 63.3885456,52.0607717 L68.4243726,49.0930736 C68.5892655,49.0040427 68.6585204,48.9743657 68.7805411,49.0238273 C68.9025952,49.0739455 68.9830247,49.1919805 68.9850082,49.3238946 L68.9850082,74.318507 L73.9317931,74.318507 L73.9317931,64.4855341 C73.9317931,61.6893031 76.464547,59.3217395 79.432618,59.3217395 L92.6702143,59.3217395 C92.8041574,59.3229514 92.9240617,59.4050494 92.9736171,59.5294784 C93.023085,59.6514838 92.9934043,59.7240275 92.9043622,59.8888996 L89.9099084,64.9603658 C89.8450561,65.0221834 89.7587638,65.0564597 89.6691648,65.0559916 L80.9199513,65.0559916 C80.2165427,65.0756351 79.6565979,65.6515895 79.6568722,66.3551839 L79.6568722,74.318507 L92.6702143,74.318507 C92.7567303,74.3188712 92.8396382,74.3532145 92.9010643,74.4141328 C92.9616287,74.4733902 92.9970568,74.5536836 93,74.6383589 L93,79.6702558 C93,79.8523685 92.8523499,80 92.6702143,80 L68.1671398,80 C66.6813546,79.9650473 65.290016,79.264017 64.3779026,78.0907809 C63.4608704,79.2633228 62.0670046,79.9637975 60.5787718,80 L26.3239353,80 C26.1920046,79.9980167 26.0739548,79.9175973 26.0238303,79.7955586 C25.9743625,79.6735532 26.0040432,79.6043069 26.0930853,79.4394348 L29.0611563,74.4108354 C29.1239283,74.3503179 29.2081163,74.3171211 29.2953041,74.318507 L39.3141924,74.318507 C39.3141924,71.6113069 39.3141924,61.5672977 39.3141924,59.6415914 Z M52.7002116,74.318507 L52.7002116,66.3419941 C52.7039769,65.6442644 52.1479449,65.0721661 51.4503047,65.0559916 L45.0062929,65.0559916 L45.0062929,73.0654789 C45.0241813,73.7628086 45.5948103,74.3187363 46.292457,74.318507 L52.7002116,74.318507 Z M71.0001635,84.1458087 C70.9983638,84.1066034 71.0114909,84.0683808 71.0362886,84.0406219 C71.0610863,84.012863 71.0952314,83.9981684 71.1302545,84.000183 L76.8697455,84.000183 C76.9047686,83.9981684 76.9389137,84.012863 76.9637114,84.0406219 C76.9885091,84.0683808 77.0016362,84.1066034 76.9998365,84.1458087 L76.9998365,85.7234209 C77.0016362,85.7626262 76.9885091,85.8008487 76.9637114,85.8286077 C76.9389137,85.8563666 76.9047686,85.8710612 76.8697455,85.8690466 L73.0134766,85.8690466 C72.9913024,85.8655285 72.9689411,85.8738877 72.9531049,85.891615 C72.9372687,85.9093423 72.9298012,85.9343738 72.932944,85.9591959 L72.932944,87.9598162 C72.932944,88.0187599 72.9608207,88.0464981 73.0134766,88.0464981 L76.2254853,88.0464981 C76.2610822,88.0443863 76.2957669,88.0595399 76.3206747,88.0880859 C76.3455825,88.116632 76.3582998,88.1558043 76.3555763,88.1955912 L76.3555763,89.7558669 C76.3582998,89.7956538 76.3455825,89.8348261 76.3206747,89.8633721 C76.2957669,89.8919182 76.2610822,89.9070718 76.2254853,89.9049599 L73.0134766,89.9049599 C72.9608207,89.9049599 72.932944,89.9326982 72.932944,89.9916419 L72.932944,92.0720096 C72.9298012,92.0968317 72.9372687,92.1218633 72.9531049,92.1395905 C72.9689411,92.1573178 72.9913024,92.165677 73.0134766,92.1621589 L76.8697455,92.1621589 C76.9047686,92.1601443 76.9389137,92.174839 76.9637114,92.2025979 C76.9885091,92.2303568 77.0016362,92.2685793 76.9998365,92.3077846 L76.9998365,93.8541913 C77.0016362,93.8933966 76.9885091,93.9316192 76.9637114,93.9593781 C76.9389137,93.987137 76.9047686,94.0018316 76.8697455,93.999817 L71.1302545,93.999817 C71.0952314,94.0018316 71.0610863,93.987137 71.0362886,93.9593781 C71.0114909,93.9316192 70.9983638,93.8933966 71.0001635,93.8541913 L71.0001635,84.1458087 Z M81.111369,93.9995806 C79.6066875,93.9995806 79.0001749,93.3130596 79.0001749,91.7512243 L79.0001749,84.1445712 C78.9982492,84.105758 79.0122954,84.0679176 79.0388294,84.0404363 C79.0653634,84.012955 79.1018993,83.9984073 79.1393745,84.0004018 L80.8296555,84.0004018 C80.8676867,83.9973836 80.9051304,84.0114772 80.9324168,84.0390805 C80.9597031,84.0666838 80.974188,84.1051221 80.9721694,84.1445712 L80.9721694,91.5933244 C80.9721694,92.0738891 81.1544546,92.2626824 81.5621106,92.2626824 L81.8570812,92.2626824 C81.8957266,92.2595489 81.9337603,92.2740904 81.9611704,92.302479 C81.9885804,92.3308677 82.0026206,92.3702593 81.9995951,92.4102844 L81.9995951,93.8519786 C82.0026206,93.8920038 81.9885804,93.9313953 81.9611704,93.959784 C81.9337603,93.9881727 81.8957266,94.0027142 81.8570812,93.9995806 L81.111369,93.9995806 Z M91.222113,93.9865415 C91.1851626,93.988471 91.1491385,93.9743971 91.1229761,93.9478108 C91.0968138,93.9212244 91.0829643,93.8846165 91.084863,93.8470673 L91.084863,89.921865 C91.084863,89.1746818 90.7221308,88.6832013 90.029345,88.6832013 C89.3365592,88.6832013 88.9868985,89.1746818 88.9868985,89.921865 L88.9868985,93.8371049 C88.9888888,93.8752692 88.9746068,93.9124556 88.9477026,93.93916 C88.9207984,93.9658644 88.8838791,93.979499 88.8463806,93.9765791 L87.1797732,93.9765791 C87.1428229,93.9785085 87.1067987,93.9644346 87.0806363,93.9378483 C87.054474,93.911262 87.0406245,93.874654 87.0425232,93.8371049 L87.0425232,89.921865 C87.0425232,89.1746818 86.6961303,88.6832013 86.0000767,88.6832013 C85.304023,88.6832013 84.9445587,89.1746818 84.9445587,89.921865 L84.9445587,93.8371049 C84.9464574,93.874654 84.9326079,93.911262 84.9064456,93.9378483 C84.8802832,93.9644346 84.844259,93.9785085 84.8073087,93.9765791 L83.1407013,93.9765791 C83.1032028,93.979499 83.0662835,93.9658644 83.0393793,93.93916 C83.0124751,93.9124556 82.9981931,93.8752692 83.0001834,93.8371049 L83.0001834,87.2984218 C82.9981931,87.2602574 83.0124751,87.223071 83.0393793,87.1963667 C83.0662835,87.1696623 83.1032028,87.1560277 83.1407013,87.1589476 L84.8073087,87.1589476 C84.844259,87.1570181 84.8802832,87.171092 84.9064456,87.1976783 C84.9326079,87.2242647 84.9464574,87.2608726 84.9445587,87.2984218 L84.9445587,87.7799399 C85.4030253,87.2710072 86.0554921,86.9881509 86.7342881,87.0040595 C87.4130841,87.0199681 88.0520252,87.3330904 88.4869163,87.8629602 C89.0353659,87.2799418 89.8050708,86.966344 90.5979522,87.0028693 C92.1828632,87.0028693 92.9998275,88.0323217 92.9998275,89.5432922 L92.9998275,93.8603506 C93.0017263,93.8978997 92.9878768,93.9345077 92.9617144,93.961094 C92.9355521,93.9876803 92.8995279,94.0017542 92.8625775,93.9998248 L91.222113,93.9865415 Z" id="Combined-Shape"></path>
                </g>
            </g>
        </g>
    </g>
</svg>